;Insert size: 0x808 (2056) bytes

#amk 2

#instruments
{
@1 $aa $87 $b8 $03 $00		;Violin
@3 $fd $f0 $b8 $03 $00		;Soft Marimba
@13 $89 $a3 $b8 $03 $00		;Ahh Choir
@8 $ff $ca $b8 $1e $00		;Fingered Bass
n1f $ff $fd $b8 $00 $00		;Noise Closed Hi-hat
n1f $ff $f5 $b8 $00 $00		;Noise Open Hi-hat
@10 $ff $f7 $b8 $0a $00		;Tom
@21 $ff $e0 $b8 $07 $96		;Kick
@10 $ff $e0 $b8 $09 $30		;Acoustic Snare
}

"Vio=(!100, -1)"
"Mar=(!103, -1)"
"Cho=(!105, -1)"
"Bas=(!106, -1)"

"CH=@34"
"OH=@35"
"T=@36"
"K=@37"
"S=@38"
"R=@22"

(!100)[@30]
(!101)[$fa$01$bc]
(!102)[$ed$28$84]
(!103)[@31]
(!104)[$fa$01$b6]
(!105)[@32]
(!106)[@33]

#0 r128 $f4$02/ t31

$ef $f7 $2a $2a
$f1 $09 $60 $01
$f5 $0b $22 $22 $24 $11 $f0 $03 $ff

Vio y10 v200 $de$18$15$20 (!101, 3)
(1)[o5g8g+8a+16>c16<g8f8.c16g2r16f8d+16d2r16d16f16d+16d16d+16d4..r16] v210 (2)[c16<g+16g2r16f8c16g2r16f8d+16d2r16<a+8g16>c2^6r12]
v100 $e8$a0$c7 (!102, -1)
(3)[>g1. Vio f2...>d32d+32d24r48c16.r32d+24r48<a+24r48>d16c24r48<g+24r48a+32>c32<a+4r32a+32g+4^16r32g+32g4^16
f16d+24r48d24r48c16d24r48<a+24r48g24r48f24r48d+16.r32d8c24r48d+8.
d16c24r48<g+16.r32a+32>c32d32c32d+32d32f32d+32d32c32<a+32>d+32f32g32g+32g32g+32a+32>c32d32d+32f32]
v190 (4)[f+32e32f+32g32f+32e32]4 (5)[f+32e32f+32g32a32g32f+32g32f+32e32f+32e32d+32e32f+32e32g32f+32e32f+32g32f+32a32g32]
(6)[f32e32f32g32f32e32]4 (7)[f32e32f32g32a32g32f32g32f32e32f32e32d32e32f32e32g32f32a32g32b32>c32d32c32
<b32g32f32e32f4r16g32f32g4r16a32g32a8.^32a32>d24r48c16.r32<b8a8^32b32g4^16.a32f4^16.g32e4^16.f32]d4

#1 r128/ Mar y9 (!104, 3) $df
r16o5
[v180 c16 v150 <d+16> v130 c16 v150 <d+16> v130 c16 v150 <d+16> v130 c16 v180 <d+16> v130 c16 v150 <d+16> v130 c16r16]2
[v180 d16 v150 <g+16> v130 d16 v150 <g+16> v130 d16 v150 <g+16> v130 d16 v180 <g+16> v130 d16 v150 <g+16> v130 d16r16]2
<[v180 g+16 v150 d+16 v130 g+16 v150 d+16 v130 g+16 v150 d+16 v130 g+16 v180 d+16 v130 g+16 v150 d+16 v130 g+16r16]2
[v180 g+16 v150 d16 v130 g+16 v150 d16 v130 g+16 v150 d16 v130 g+16 v180 d16 v130 g+16 v150 d16 v130 g+16]r16 *
v170 Cho $de$18$14$20
g1.g+1.a+1.>d+1.<b2.>c4.c4.<b2.a4.b4d32f32g32a32g4.f4.e4.d4.g4.a4.f4.g4.

#2 r128/Mar y11 (!104, 3) $df
r16o4
[v180 d+16> v150 c16 v130 <d+16> v150 c16 v130 <d+16> v150 c16 v130 <d+16> v180 c16 v130 <d+16> v150 c16< v130 d+16r16]2
[v180 g+16> v150 d16 v130 <g+16> v150 d16 v130 <g+16> v150 d16 v130 <g+16> v180 d16 v130 <g+16> v150 d16< v130 g+16r16]2
[v180 d+16 v150 g+16 v130 d+16 v150 g+16 v130 d+16 v150 g+16 v130 d+16 v180 g+16 v130 d+16 v150 g+16 v130 d+16r16]2
[v180 d16 v150 g+16 v130 d16 v150 g+16 v130 d16 v150 g+16 v130 d16 v180 g+16 v130 d16 v150 g+16 v130 d16] r16 *
v170 Cho $de$18$14$20
>c1.d1.d1.>c1.<<e2.e4.d+4.f2.e4.f4g32a32b32>c32d4.c4.<b4.a4.>c4.d4.<a4.>c+4.

#3 r128/Bas v220 y10 (!101, 3)
o2f2^8c8f2c8<f8a+2^8f8a+2f8a+8>f2^8c8f2c8<f8a+2^8f8a+2f8 t30 a+8 t31 v230
f16>c24r48<a+24r48>g24r48d+16.r32>c24r48<f16.r32c24r48<$f4$01g16a+48 $f4$01 ^48r12>g24r48<g+24r48f24r48
>d+24r48g24r48<g+24r48>c16.r32d+24r48f24r48<g+24r48>g+24r48<a+16.r32>g16.r32f8 $f4$01 d32d+64 $f4$01 ^64
$f4$01 d16c48 $f4$01 ^48r48f24r48<a+16.r32>g+24r48f24r48g8d+24r48c24r48f24r48d24r48d+8c24r48
d24r48<f24r48>c24r48<a+24r48>d24r48f8d+24r48d24r48<a+8>c24r48g16d+16.r32<f24r48
>c16<a+24r48>d+8d16<g8>c24r48<a+24r48>f16.r32g+8g24r48>c8.<g+16f24r48<a+16.r32>f8g+8d16>c24r48<g24r48g+24r48c16f24r48<a+16
>d6r48>c6r48c24r48<d16.r32a24r48e16g16.r32e24r48d24r48c8e8a16.r32>c16.r32<a16.r32g16.r32f16.r32d8<b24r48
>c16<a24r48>d24r48g16.r32f24r48d24r48e8<b24r48a24r48>d24r48<b24r48>c8<a24r48
b24r48>d16.r32<a24r48>g24r48d8>c24r48<b24r48g8a24r48e16c16.r32d24r48a16g24r48>c8<b16e8a24r48<g24r48>d16.r32f8e24r48a8.
f16d24r48<g16.r32>d8f8<b16>a24r48e24r48f24r48<a16>d24r48<g24r48

#4 r128/
[r2]23 r4^16 [o2 T y11 v210g8 y12 v220 d16
o3 K y10 v220 c8 S v170 c32 v190 c32 v210 c16 v160 c16 v150 c16 v210 c16 K v220 c8c16. S v190 c32 v210 c16 v160 c16 v255 R >c8.
v210 < K c16]5

#5 r128/
[r2]12
v55 y9 [CH c32c32c32c32 OH c16. CH c32c32c32c32c32c32c32 OH c16. CH c32c32c32c32c32c32c32 OH c32 CH c32c32c32 OH c32 CH c32c32c32
c32c32 OH c16. CH c32c32c32 OH c16. CH c32c32c32c32c32]4 OH c8.c8. CH c32c32 OH c32 CH c32r32
[CH c32c32c32c32c32c32c32 OH c32 CH c32c32c32 OH c32 CH c32c32c32
c32c32 OH c16. CH c32c32c32 OH c16. CH c32c32c32c32c32] OH c8.. CH c32c32c32c32c32c32c32 OH c16. *
OH c8^32 CH c32c32c32c32c32c32c32c32c32 OH c8^32 CH c32c32c32c32c32 OH c32 CH c32c32 OH c16. CH c32c32
c32c32 OH c16. CH c32c32c32 OH c16. CH c32c32c32c32c32 OH c8. CH c32c32c32c32c32c32 OH c8^32
CH c32c32c32c32c32 OH c8. CH c32c32c32c32 OH c8.. CH c32c32c32c32c32c32 OH c32 CH c32c32

#6 r128/
^16 Vio y13 v110 $de$18$15$20 (!101, 3)
(1) v120 (2) v40 $e8$a0$6e (!102, -1) (3) v100 (4)4 (5) (6)4 (7) >>d8.^