;Insert size: 0x048c (1164) bytes

#amk 1

#spc
{
	#title "Highest Castle Floor (Stage 4)"
	#game "Castlevania Legends"
}

#0 @4 v220 y11 w200 t36
q7e
$ef $ff $30 $30
$f1 $06 $50 $01
$ed $1b $80 $de $10 $10 $33
[e16f+16g16> $ec$00$03$02 d8 $ec$00$00$00 <g16f+16e16<b32>e32f+32g32b32g32f+32e32<b32>e32f+32g32b32g32f+32e32
<b16>e16g32b16>g16.f+16.e32d32e16.<a+16a32g32a32g16.e16f+16g8c16<g16>g8r8g8a8b8a8>e4
<b16>e16f+16e16d+8<b16>b16a16f+16d+16<b16g4r4>$ec$00$03$02 d4 $ec$00$00$00 r16c16<b16a16g8
<b16>e16g32f+16.d16<a16b8>e16g16b16>g16f+16e32d16e3^96c8d3r24b16a16g4..e16d16<a+16a32g32e16d32e16.<b16>d16e3
r24f+16e8..r8..a16a+16 $ec$00$03$02 b8 $ec$00$00$00 q2e b16>d16<b16> q7e d8<b16>d16<b16>e16<b16a+16a16g16e16b4
r8.

a16b16>c16<b16>c16d16e16g16f+16e4d4^16g8f+16d+16<b8a16f+16]
@6 $ed $7c $e0
*1

#1 @6 $ed $7c $e0 v210 y8
$de $10 $10 $33 q7e
[r16r=72 $ec$00$03$02 b16 $ec$00$00$00 r16b16a16g8f+16d16e2 $ec$00$03$02 b16 $ec$00$00$00 r16b16a16g8f+16d16e=72
f+16g16>$ec$00$03$02 d8 $ec$00$00$00 c8d8c16<a16b=180r16e=54r=42 $ec$00$03$02 b16 $ec$00$00$00 r16a8g8a32g32f+16e2
$ec$00$03$02 b16 $ec$00$00$00 r16a8g8f+16d8e16e16e16e16r16e16e16f+=36f+16f+16g16f+16d=36
e=84r16g16e16a+16a16g16>d16c=72<b16r16a=36r16a16g16a16b16>$ec$00$03$02 c8 $ec$00$00$00<b=138r32e16>d16d=72
c16r16d=36e16<g8>$ec$00$03$02 c8 $ec$00$00$00<b=144r=60]
@1 $ed $7e $e0 v240
*1

#2 @14 v255 y10
$ed $7e $e0
[o2e16e16>e16<e16>d16e16r16<e16r16e16>e16<e16r16>e16<d16c8c16>c16<g32>c32r16<c16>c16<c8c16>c16<c16c16>c16<b16a16
r16<a16>a16<a8e16g16a8a16>a16<a8a16a+16b8b8b16b16c+16d16d+8d+16e16f+8b16b16>e8
e16>e16d32e32r16<d16d+16e8e16>e16d32e32r16<e16d16c8c16>c=18c32r16<g8c8c16>c16<b8b16b16a8
a16a16a8a16a16b8b16b16d8>d16<d16e8>e16<e16g16>g16<g16a16>a16<a16b16>b16<b16e=18d16c=30
c16>c16<c16c8>c16<c16c8>c16<c16c16>c16<d16e8e16>e16<e16>d16e16r16<e8e16>e8<e16>e16<d16c8
c16>c8c8<b16c8c16>c8<c16>c16<c16d8d16>d16<d8d16>d16<d+8d+16f+16b16>d+16<b16f+16d+16]2

#3 @1 v120 y8
$ed $79 $e0 $de $00 $14 $24
[o5e=180c1<a1b1>e1c1<a2b2>e=156{e8d8}c1^32e1c1d=108d+4f+4]2

#4 @1 v120 y10
$ed $79 $e0 $de $00 $14 $24
[o4b=180g1e1f+1b1g1e2f+2b=156{b8a8}g1^32b1g1a=108b4>d+4]2

#7 @1 v120 y12
$ed $79 $e0 $de $00 $14 $24
[o4g=180e1c1d+1g1e1c2d2g=156{g8f+8}e1^32g1e1f+=108f+4b4]2

#6
(60)[o3 v180 y10 q7f @22f+16 q7d @22f+32 q7e @22f+32]64
(61)[y7 v200 q7f @22c8 q7e @22c8]14
(62)[q7f @22d+16 y10 v220 @23a+16 v180 @22f+8@22f+8 o3 v255 @10 $ed $7f $fa f16f32f32]
(60)64 (61)14 (62)1

#5 v250 y10
(70)[@21c8@29d8@21c16@21c16@29d16@21c8@21c16@29d16@21c16@21c8@29d8]3
(71)[@21c16]10 (72)[@29d16@21c16@29d16@21c16@29d8]1
(70)3 (71)10 (72)1 (70)3 (71)10 (72)1 (70)3 (71)10 (72)1 (70)3 (71)10 (72)1 (70)3
@21c8@29d8@21c16@21c16@29d16@21c16r16@21c16@29d16@21c16@21c8@29d8
(70)3 (71)10 (72)1